<svg width="8" height="14" viewBox="0 0 8 14" fill="none" xmlns="http://www.w3.org/2000/svg">
<path d="M5.85156 9.43652C5.85156 9.01725 5.70345 8.66406 5.40723 8.37695C5.11556 8.08984 4.62109 7.83008 3.92383 7.59766C2.95312 7.30143 2.24447 6.91634 1.79785 6.44238C1.35579 5.96387 1.13477 5.35775 1.13477 4.62402C1.13477 3.87663 1.35124 3.26367 1.78418 2.78516C2.22168 2.30664 2.82096 2.02181 3.58203 1.93066V0.433594H4.60059V1.9375C5.36621 2.04232 5.96094 2.36361 6.38477 2.90137C6.81315 3.43913 7.02734 4.17513 7.02734 5.10938H5.76953C5.76953 4.4668 5.61686 3.95638 5.31152 3.57812C5.00618 3.19987 4.59375 3.01074 4.07422 3.01074C3.5319 3.01074 3.11719 3.15202 2.83008 3.43457C2.54297 3.71257 2.39941 4.10221 2.39941 4.60352C2.39941 5.06836 2.5498 5.43978 2.85059 5.71777C3.15592 5.99121 3.65495 6.24186 4.34766 6.46973C5.04492 6.69303 5.58724 6.94141 5.97461 7.21484C6.36654 7.48372 6.65365 7.79818 6.83594 8.1582C7.02279 8.51823 7.11621 8.93978 7.11621 9.42285C7.11621 10.193 6.88379 10.8128 6.41895 11.2822C5.95866 11.7516 5.31152 12.0296 4.47754 12.1162V13.4219H3.46582V12.1162C2.61816 12.0387 1.9528 11.738 1.46973 11.2139C0.991211 10.6852 0.751953 9.96973 0.751953 9.06738H2.0166C2.0166 9.70085 2.18294 10.1885 2.51562 10.5303C2.84831 10.8721 3.31999 11.043 3.93066 11.043C4.52767 11.043 4.99707 10.8994 5.33887 10.6123C5.68066 10.3252 5.85156 9.93327 5.85156 9.43652Z" fill="white"/>
</svg>
